<?xml version="1.0" standalone="no"?>
<!DOCTYPE svg PUBLIC "-//W3C//DTD SVG 20010904//EN"
 "http://www.w3.org/TR/2001/REC-SVG-20010904/DTD/svg10.dtd">
<svg version="1.0" xmlns="http://www.w3.org/2000/svg"
 width="860.000000pt" height="954.000000pt" viewBox="0 0 860.000000 954.000000"
 preserveAspectRatio="xMidYMid meet">
<metadata>
Created by potrace 1.16, written by Peter Selinger 2001-2019
</metadata>
<g transform="translate(0.000000,954.000000) scale(0.100000,-0.100000)"
fill="#000000" stroke="none">
<path d="M5230 9104 c-261 -30 -468 -73 -660 -137 -91 -30 -185 -64 -209 -76
-25 -11 -48 -21 -53 -21 -11 0 -191 -89 -253 -125 -27 -16 -97 -60 -154 -97
-57 -37 -108 -68 -112 -68 -5 0 -9 -3 -9 -7 0 -5 -23 -24 -50 -43 -70 -50
-325 -310 -397 -405 -68 -91 -183 -260 -183 -270 0 -3 -11 -21 -24 -38 -33
-44 -176 -340 -226 -467 -23 -58 -48 -118 -55 -135 -7 -16 -25 -64 -40 -105
-24 -67 -45 -122 -91 -240 -19 -48 -76 -218 -130 -385 -88 -272 -140 -390
-250 -562 -19 -29 -34 -56 -34 -59 0 -7 -41 -71 -266 -414 -38 -58 -74 -114
-80 -125 -112 -196 -195 -380 -234 -520 -13 -44 -33 -116 -46 -160 -13 -44
-30 -123 -39 -175 -12 -76 -26 -117 -69 -205 -69 -141 -86 -181 -86 -205 0
-10 -4 -21 -8 -24 -23 -14 -44 -159 -40 -269 5 -140 26 -187 131 -294 78 -81
98 -120 70 -140 -27 -21 -184 -100 -243 -123 -145 -57 -666 -330 -796 -417
-174 -117 -188 -129 -233 -217 -55 -104 -37 -235 45 -321 45 -47 118 -78 229
-96 61 -10 100 -9 193 1 65 7 133 16 152 21 76 18 202 30 213 21 63 -51 163
-82 267 -82 144 0 304 40 610 150 63 23 129 47 145 52 17 6 34 15 40 19 18 17
41 8 105 -41 147 -114 210 -160 219 -160 5 0 11 -3 13 -8 7 -17 170 -113 308
-181 80 -40 153 -77 163 -82 16 -8 125 -53 277 -113 70 -27 100 -44 100 -57 0
-19 105 -155 170 -219 42 -42 90 -78 135 -101 43 -21 71 -42 73 -53 5 -23 -9
-21 -128 23 -69 25 -101 31 -167 31 -79 0 -83 -1 -115 -33 -18 -18 -41 -43
-50 -55 -10 -12 -28 -22 -40 -22 -13 0 -45 -8 -72 -17 -121 -44 -135 -189 -22
-232 33 -13 51 -12 151 3 106 17 119 17 246 1 235 -30 298 -47 434 -125 53
-30 158 -112 220 -172 90 -87 132 -103 183 -71 47 29 62 54 62 108 0 51 -23
98 -71 146 -29 29 -24 43 14 34 190 -43 276 -51 314 -31 73 37 84 159 18 202
-29 19 -168 57 -295 80 -175 32 -208 36 -310 43 -101 6 -105 7 -108 30 -5 34
8 42 86 51 79 8 237 66 325 118 l58 35 332 1 c200 1 354 6 387 13 30 6 88 14
129 17 73 6 73 6 66 -16 -21 -63 8 -145 59 -173 35 -19 104 -18 246 5 117 19
299 8 382 -24 162 -60 331 -162 432 -259 72 -70 109 -86 163 -72 59 14 90 74
78 151 -5 35 -16 54 -56 93 -27 27 -49 52 -49 55 0 11 40 6 68 -8 15 -7 61
-21 103 -31 68 -15 80 -15 112 -2 66 28 94 107 58 164 -51 82 -369 176 -668
199 -71 5 -93 10 -98 22 -8 20 16 39 70 54 213 63 508 297 618 489 14 26 70
86 123 135 135 124 213 203 254 254 19 24 46 58 60 75 59 70 166 224 193 275
4 8 20 35 36 60 80 124 201 346 201 369 0 6 11 34 24 63 127 285 207 566 251
878 9 63 20 138 25 165 21 119 32 255 40 475 4 129 10 242 14 250 3 8 10 78
15 155 5 77 19 190 31 250 18 91 22 161 27 405 5 295 -2 440 -31 620 -8 47
-18 96 -23 110 -6 14 -16 57 -22 95 -12 67 -33 148 -51 190 -4 11 -20 54 -34
95 -15 41 -70 163 -122 270 -52 107 -94 201 -94 208 0 7 -4 20 -9 30 -6 9 -36
71 -67 137 -32 66 -60 122 -64 125 -3 3 -25 37 -49 77 -58 97 -223 327 -290
403 -123 141 -411 358 -619 467 -59 31 -111 59 -117 63 -34 26 -320 128 -460
165 -63 16 -216 50 -300 65 -201 38 -491 48 -695 24z m565 -258 c61 -8 148
-22 195 -31 47 -9 105 -20 130 -24 43 -8 98 -25 130 -41 8 -4 42 -15 75 -24
33 -9 74 -23 90 -30 17 -8 41 -18 55 -24 56 -22 265 -127 268 -134 2 -4 10 -8
17 -8 8 0 20 -6 27 -12 7 -7 29 -22 48 -32 19 -11 37 -22 40 -26 3 -3 28 -21
55 -40 28 -19 52 -36 55 -39 3 -3 25 -22 50 -41 25 -19 47 -38 48 -42 2 -4 10
-8 18 -8 8 0 14 -7 14 -15 0 -8 4 -15 9 -15 22 0 281 -290 281 -314 0 -3 23
-37 50 -76 28 -39 50 -74 50 -79 0 -5 6 -16 14 -23 14 -15 38 -61 126 -238 28
-58 56 -113 61 -123 5 -9 16 -39 25 -65 9 -26 29 -68 45 -95 16 -26 29 -49 29
-51 0 -3 16 -39 35 -80 19 -42 35 -79 35 -82 0 -3 6 -20 14 -37 7 -18 22 -59
32 -92 10 -33 21 -64 25 -70 4 -5 14 -50 23 -100 9 -49 23 -112 31 -140 23
-81 27 -133 32 -480 4 -319 -1 -424 -28 -545 -28 -124 -29 -133 -44 -470 -3
-69 -10 -156 -16 -195 -5 -38 -14 -133 -19 -210 -9 -125 -24 -255 -49 -425 -5
-30 -19 -95 -31 -145 -50 -207 -83 -331 -90 -350 -4 -11 -16 -42 -25 -70 -9
-27 -25 -68 -35 -90 -10 -22 -28 -65 -40 -95 -34 -84 -112 -238 -137 -273 -13
-17 -23 -39 -23 -49 0 -10 -4 -18 -10 -18 -5 0 -10 -5 -10 -11 0 -6 -22 -41
-49 -79 -27 -37 -51 -75 -53 -86 -2 -11 -12 -19 -23 -19 -13 0 -20 -7 -20 -20
0 -27 -24 -67 -36 -60 -5 4 -9 0 -9 -8 0 -18 -73 -97 -90 -97 -7 0 -10 -7 -6
-15 6 -18 -2 -45 -15 -45 -5 0 -9 9 -9 20 0 11 -7 20 -16 20 -9 0 -14 -7 -12
-18 1 -9 -2 -17 -7 -18 -22 -2 -45 9 -45 22 0 22 -20 16 -29 -9 -11 -28 6 -64
22 -48 14 14 37 14 37 1 0 -5 -7 -10 -15 -10 -8 0 -15 -6 -15 -12 0 -10 -34
-14 -127 -16 -71 -2 -133 -8 -139 -13 -18 -14 -197 -16 -202 -1 -5 16 -203 17
-219 1 -15 -15 -206 -16 -211 -1 -5 17 -201 16 -207 -1 -3 -7 -21 -11 -43 -11
-20 1 -65 2 -99 3 -58 1 -63 3 -69 26 -6 25 -7 25 -110 24 -86 -1 -106 -4
-114 -17 -9 -16 -9 -16 -10 0 0 9 -9 20 -20 23 -11 3 -20 11 -20 16 0 18 -18
9 -25 -13 -7 -22 -8 -21 -14 7 -5 25 -11 31 -41 33 -19 2 -37 7 -40 12 -3 5
-68 11 -145 15 -111 5 -142 9 -148 21 -6 11 -17 14 -33 10 -17 -5 -24 -2 -24
9 0 10 -10 15 -34 15 -19 0 -36 6 -39 13 -3 9 -9 9 -26 -1 -25 -15 -51 -16
-51 -2 0 14 -37 12 -43 -2 -3 -7 -6 -1 -6 14 -1 15 -6 30 -12 33 -6 4 -55 8
-110 8 -84 1 -99 4 -99 18 0 21 -10 30 -24 21 -14 -9 -30 -9 -36 -1 -3 4 -18
9 -35 10 -16 2 -40 15 -53 28 -21 23 -23 23 -35 7 -13 -17 -14 -17 -31 -1 -9
10 -25 15 -37 12 -13 -4 -24 1 -32 14 -14 22 -37 25 -37 5 0 -8 -7 -16 -14
-19 -10 -4 -13 -1 -10 8 7 17 -18 45 -39 45 -9 0 -17 -5 -19 -12 -6 -18 -28 1
-28 24 0 17 -5 20 -31 16 -20 -3 -33 0 -36 9 -6 16 -25 17 -41 1 -23 -23 -42
-18 -42 13 0 19 -5 29 -15 29 -9 0 -15 -9 -15 -25 0 -14 -4 -25 -10 -25 -5 0
-10 16 -10 35 0 32 -2 35 -30 35 -16 0 -30 3 -30 8 0 4 -9 13 -21 20 -18 11
-23 11 -35 -5 -8 -10 -13 -13 -12 -8 4 14 -39 55 -58 55 -8 0 -13 -4 -9 -9 3
-5 1 -12 -4 -16 -5 -3 -11 12 -13 32 -2 27 -8 39 -20 41 -13 2 -16 -1 -12 -12
9 -24 -11 -19 -31 8 -14 19 -27 23 -71 24 -61 0 -74 6 -74 33 0 21 -20 25 -38
7 -9 -9 -12 -9 -12 1 0 9 -9 12 -28 9 -17 -2 -35 3 -47 14 -10 10 -33 18 -51
18 -31 0 -33 2 -36 38 -3 33 -6 37 -33 40 -16 2 -34 8 -39 13 -6 5 -23 9 -38
9 -22 0 -28 5 -28 21 0 18 -5 20 -37 17 -33 -2 -38 0 -43 22 -5 20 -12 25 -39
26 -18 1 -37 7 -42 15 -13 20 -11 49 3 49 6 0 20 7 30 16 16 15 18 15 24 1 3
-9 12 -13 20 -10 9 3 13 12 9 21 -7 20 13 42 32 35 13 -5 15 -2 11 15 -5 19
-3 21 17 16 12 -3 26 -1 29 5 4 6 0 11 -8 11 -9 0 -16 3 -16 7 0 12 33 43 46
43 7 0 22 12 34 28 12 15 51 58 86 95 35 38 64 71 64 75 0 4 16 22 35 39 19
18 35 37 35 42 0 6 14 26 30 44 17 19 30 38 30 41 0 4 18 31 40 61 22 30 40
57 40 59 0 3 18 35 40 71 22 36 40 72 40 80 0 8 3 15 8 15 9 0 35 50 58 115
10 28 24 61 31 75 7 14 13 31 13 38 0 7 4 20 10 30 12 21 47 137 66 217 8 33
17 126 21 207 5 120 3 162 -11 220 -45 190 -162 335 -318 394 -56 21 -299 30
-383 14 -126 -23 -141 -27 -162 -38 -12 -7 -31 -12 -42 -12 -11 0 -41 -11 -67
-25 -26 -14 -54 -25 -62 -25 -15 0 -215 -96 -301 -144 -63 -36 -91 -65 -91
-97 0 -15 -4 -30 -9 -33 -12 -8 18 -92 40 -112 11 -10 36 -24 57 -31 51 -17
96 0 293 109 24 14 53 27 64 31 11 3 58 20 105 37 118 43 193 66 275 82 66 13
80 13 160 -9 43 -12 105 -53 105 -69 0 -8 3 -14 8 -14 9 0 32 -49 32 -71 0
-10 7 -30 16 -46 14 -24 16 -45 9 -125 -7 -101 -28 -157 -41 -110 -6 21 -7 21
-20 5 -8 -12 -11 -32 -7 -55 3 -24 2 -38 -5 -38 -6 0 -12 17 -14 37 -4 51 -26
54 -34 4 -5 -31 -11 -39 -25 -38 -11 1 -19 4 -19 8 0 4 -7 10 -16 13 -13 5
-16 0 -12 -27 3 -31 2 -33 -20 -29 -14 3 -28 -1 -33 -9 -4 -8 -16 -14 -26 -14
-10 0 -22 -10 -27 -22 -6 -12 -26 -26 -45 -32 -77 -23 -86 -25 -93 -23 -3 1
-12 -5 -18 -13 -7 -8 -23 -15 -36 -15 -12 0 -26 -4 -29 -10 -3 -5 -22 -10 -41
-10 -20 0 -45 -5 -57 -12 -12 -6 -37 -11 -56 -9 -20 1 -41 -5 -52 -15 -11 -10
-19 -12 -19 -6 0 20 -32 13 -37 -8 -3 -11 -13 -20 -23 -20 -10 0 -20 9 -23 20
-5 21 -47 29 -47 9 0 -5 -4 -7 -10 -4 -5 3 -10 -1 -10 -9 0 -12 -10 -16 -39
-16 -31 0 -41 4 -46 20 -9 27 -55 27 -62 0 -7 -28 -75 -28 -94 -1 -11 16 -29
21 -89 24 -74 3 -75 4 -78 33 -5 45 -20 51 -27 10 -4 -20 -13 -36 -21 -36 -7
0 -11 6 -8 14 9 24 -15 56 -41 56 -18 0 -25 6 -25 18 0 10 -11 25 -25 32 -14
7 -25 17 -25 21 0 13 -61 39 -91 39 -22 0 -26 4 -22 20 3 11 9 20 13 20 5 0
11 14 15 30 4 16 11 30 16 30 5 0 9 8 9 18 0 9 15 40 33 67 19 28 44 71 57 98
13 26 27 47 32 47 4 0 8 5 8 11 0 6 29 55 65 110 36 54 65 101 65 104 0 3 17
28 38 57 39 54 78 118 109 178 10 19 22 38 26 41 5 3 15 19 24 35 8 16 35 67
60 114 24 47 48 92 52 100 25 44 61 127 61 140 0 8 7 24 15 34 8 11 15 29 15
41 0 12 4 25 9 31 4 5 34 90 66 189 32 99 63 191 70 205 6 14 17 45 25 70 7
25 19 59 26 77 8 17 14 38 14 46 0 9 5 19 10 22 6 3 10 14 10 23 0 9 7 30 15
46 8 15 15 37 15 48 0 10 13 47 28 81 16 34 34 78 41 97 7 19 17 44 21 55 5
11 16 38 25 60 38 91 172 370 188 390 8 10 65 104 99 165 11 19 33 50 49 68
16 18 29 36 29 40 0 5 8 17 18 28 9 11 40 46 67 79 54 65 241 255 250 255 6 0
12 4 70 55 22 19 67 51 100 72 33 20 62 40 65 43 3 4 21 15 40 26 19 10 41 25
48 32 7 6 18 12 23 12 5 0 26 10 47 23 20 13 53 29 72 37 19 7 42 19 50 25 8
7 38 20 65 30 28 10 55 22 60 25 6 4 19 10 30 13 11 3 45 15 75 26 30 12 61
21 68 21 8 0 28 6 45 13 60 25 102 39 147 48 25 4 81 15 125 23 44 9 139 23
210 31 72 9 137 17 145 20 33 9 372 -4 475 -19z m-4055 -5853 c0 -7 4 -13 10
-13 5 0 12 -11 16 -25 3 -14 10 -25 16 -25 5 0 8 -9 6 -20 -2 -10 6 -26 17
-35 14 -11 16 -18 8 -21 -16 -7 -17 -34 -2 -34 18 0 46 -33 31 -38 -13 -4 -17
-32 -4 -32 4 0 13 5 20 12 9 9 13 7 18 -6 4 -10 0 -24 -9 -33 -14 -14 -18 -14
-41 3 -14 11 -26 24 -26 31 0 6 -9 15 -20 18 -11 3 -20 13 -20 20 0 8 -18 24
-40 35 -38 19 -40 19 -60 3 -22 -19 -43 -22 -180 -26 -103 -4 -113 -1 -104 27
5 17 4 19 -7 9 -17 -17 -59 -17 -59 0 0 7 12 18 28 24 28 13 63 34 72 44 11
12 40 18 45 9 4 -6 16 -10 28 -10 20 0 20 0 1 14 -10 8 -17 16 -14 18 27 17
75 38 90 38 24 0 90 31 90 42 0 4 11 8 25 8 14 0 25 6 25 13 1 15 39 -34 40
-50z m-870 -420 c0 -11 -24 -49 -36 -56 -25 -14 -15 -27 21 -27 49 0 46 -25
-5 -38 -22 -5 -87 -10 -145 -10 l-105 -1 27 35 c16 19 49 44 76 56 26 12 47
28 47 35 0 7 11 13 25 13 16 0 25 -6 25 -16 0 -18 24 -14 26 4 1 7 2 14 3 16
1 5 41 -5 41 -11z"/>
<path d="M7120 7486 c-94 -21 -138 -54 -195 -145 -23 -37 -27 -55 -27 -120 -1
-81 4 -96 56 -173 65 -97 217 -138 330 -87 54 23 116 75 116 95 0 8 4 14 9 14
16 0 41 86 41 145 0 59 -25 145 -41 145 -5 0 -9 6 -9 14 0 7 -21 31 -46 54
-33 29 -62 44 -109 56 -35 9 -65 16 -67 15 -2 0 -28 -6 -58 -13z"/>
<path d="M6075 7313 c-108 -10 -246 -64 -325 -128 -82 -67 -155 -163 -186
-247 -9 -24 -21 -54 -27 -67 -17 -35 -16 -343 1 -349 6 -2 12 -12 12 -22 0
-21 49 -117 82 -162 40 -53 121 -126 193 -175 39 -26 72 -50 75 -53 14 -16
270 -169 299 -179 68 -23 159 -7 219 37 50 37 142 166 194 273 75 156 92 202
107 306 35 235 -18 408 -178 575 -46 48 -89 88 -96 88 -7 0 -18 6 -24 13 -12
15 -114 59 -176 75 -44 12 -123 19 -170 15z m177 -288 c78 -37 143 -103 192
-194 51 -95 48 -247 -8 -376 -63 -144 -143 -275 -169 -275 -10 0 -33 11 -51
25 -18 14 -36 25 -40 25 -4 0 -22 11 -40 25 -18 14 -38 25 -44 25 -7 0 -12 5
-12 10 0 6 -10 14 -22 19 -53 20 -218 157 -218 180 0 6 -3 11 -7 11 -11 0 -43
59 -43 79 0 9 -5 22 -12 29 -17 17 -17 157 0 173 6 7 12 22 12 33 0 25 49 102
92 143 18 17 60 45 93 62 52 26 71 30 142 31 68 0 92 -4 135 -25z"/>
<path d="M4535 6982 c-55 -27 -109 -79 -137 -132 -33 -64 -33 -186 0 -249 84
-159 294 -201 430 -86 117 100 126 301 18 405 -63 61 -90 72 -186 77 -69 3
-93 0 -125 -15z"/>
</g>
</svg>
