<?xml version="1.0" standalone="no"?>
<!DOCTYPE svg PUBLIC "-//W3C//DTD SVG 20010904//EN"
 "http://www.w3.org/TR/2001/REC-SVG-20010904/DTD/svg10.dtd">
<svg version="1.0" xmlns="http://www.w3.org/2000/svg"
 width="800.000000pt" height="836.000000pt" viewBox="0 0 800.000000 836.000000"
 preserveAspectRatio="xMidYMid meet">
<metadata>
Created by potrace 1.16, written by Peter Selinger 2001-2019
</metadata>
<g transform="translate(0.000000,836.000000) scale(0.100000,-0.100000)"
fill="#000000" stroke="none">
<path d="M2175 7404 c-127 -21 -251 -61 -373 -119 -151 -73 -247 -141 -368
-260 -197 -196 -322 -434 -371 -709 -22 -123 -21 -345 1 -451 55 -258 201
-562 366 -765 56 -70 60 -78 56 -115 -14 -113 -18 -401 -6 -505 46 -419 220
-768 517 -1037 316 -285 633 -477 1004 -606 15 -5 15 -14 -8 -94 -67 -241
-159 -404 -254 -453 -20 -10 -146 -53 -280 -95 -263 -83 -437 -155 -546 -228
-120 -80 -147 -128 -100 -183 23 -26 31 -29 84 -28 62 1 149 21 332 79 63 19
115 34 117 33 1 -2 -27 -37 -62 -78 -120 -138 -194 -273 -202 -367 -5 -65 14
-93 63 -93 47 0 89 35 287 238 97 100 178 182 180 182 1 0 3 -73 4 -163 1
-313 79 -525 178 -488 39 16 55 59 71 203 50 423 71 537 121 643 48 101 151
171 377 257 145 55 190 83 214 133 13 28 14 36 2 61 -29 59 -97 67 -289 34
-63 -11 -120 -20 -126 -20 -10 0 109 316 125 333 5 4 71 -3 147 -17 76 -14
189 -30 249 -37 138 -16 528 -16 659 0 54 6 101 9 103 7 11 -11 -225 -506
-291 -608 -18 -29 -115 -131 -215 -227 -208 -199 -311 -327 -391 -487 -80
-157 -78 -234 5 -234 45 0 90 35 283 224 178 174 232 223 232 209 0 -4 -14
-62 -31 -128 -39 -156 -56 -326 -42 -429 13 -90 31 -122 73 -131 65 -14 97 46
191 357 l62 208 47 -98 c95 -196 259 -382 337 -382 33 0 73 42 73 77 0 38 -28
133 -85 283 -61 164 -95 292 -95 361 0 78 30 121 220 308 154 151 160 158 160
197 0 57 -26 79 -94 78 -56 -1 -103 -16 -245 -76 -51 -21 -95 -37 -98 -35 -5
6 179 405 240 522 41 78 43 80 92 93 627 166 1186 439 1710 836 216 164 467
393 486 444 57 149 51 648 -12 939 -104 487 -380 1050 -650 1325 -37 38 -70
68 -75 68 -5 0 -17 -55 -27 -122 -61 -425 -144 -761 -282 -1143 -111 -309
-183 -452 -358 -722 -43 -68 -83 -123 -87 -123 -4 0 -27 38 -50 84 -347 701
-902 1200 -1584 1425 l-108 36 1 121 c8 546 -332 1084 -846 1339 -192 95 -370
135 -590 134 -81 -1 -184 -7 -228 -15z m462 -185 c43 -6 79 -14 81 -19 2 -5 9
-7 16 -4 17 7 158 -41 149 -51 -5 -4 -2 -5 4 -1 17 10 141 -49 246 -117 91
-59 114 -81 49 -48 -76 39 -283 101 -437 132 -80 16 -330 16 -430 0 -149 -23
-340 -85 -496 -161 -33 -16 -66 -28 -72 -26 -7 1 -9 1 -4 -1 4 -3 -35 -30 -85
-60 -51 -30 -104 -62 -118 -71 -14 -9 -28 -15 -32 -14 -5 1 -8 -2 -8 -6 0 -5
-15 -19 -32 -32 l-33 -23 20 24 c50 62 139 147 148 142 6 -3 7 -1 3 5 -9 15
160 146 176 136 7 -4 10 -4 6 1 -10 10 18 30 95 67 90 44 188 79 200 71 6 -4
7 -1 2 7 -6 10 -1 12 26 7 26 -5 30 -4 19 4 -12 8 -9 10 13 6 15 -2 25 -2 21
2 -3 3 32 13 78 23 97 19 284 23 395 7z m-452 -344 c221 -39 432 -173 520
-330 49 -89 91 -224 106 -342 l12 -103 -31 -67 c-50 -109 -66 -191 -66 -343
-1 -144 15 -225 53 -271 18 -23 25 -24 133 -23 92 1 130 6 203 28 178 54 350
172 454 312 22 30 22 33 6 63 -56 110 -186 283 -269 358 -53 49 -54 49 -65
133 -15 111 -14 160 4 266 16 95 68 214 109 253 l23 22 34 -38 c45 -49 129
-168 129 -181 0 -5 -11 -13 -25 -16 -68 -17 -135 -147 -135 -264 0 -109 34
-195 107 -273 54 -58 116 -82 200 -78 70 4 70 6 54 -156 -19 -192 -63 -327
-146 -446 -78 -110 -239 -301 -313 -369 -134 -124 -342 -248 -480 -286 l-62
-17 0 -77 c0 -73 24 -293 34 -309 3 -4 -6 -42 -19 -84 -74 -231 -48 -510 71
-763 75 -162 255 -372 409 -479 39 -27 74 -52 79 -56 11 -10 -89 13 -227 52
-488 137 -922 395 -1166 694 -270 329 -409 752 -400 1215 l3 135 -58 87 c-171
261 -266 574 -266 878 0 155 15 253 60 385 32 94 58 131 161 232 227 220 484
307 764 258z m4361 -1086 c35 -53 64 -103 64 -111 0 -57 -139 -386 -290 -688
-51 -102 -127 -264 -169 -360 -79 -181 -147 -294 -287 -480 -65 -87 -194 -220
-212 -220 -4 0 -17 39 -30 86 l-23 85 84 127 c154 233 306 510 407 742 83 189
251 669 316 902 l19 67 28 -27 c16 -15 58 -70 93 -123z m-2628 -41 c109 -45
147 -69 130 -80 -9 -6 -5 -7 11 -3 17 5 22 4 16 -5 -6 -9 -4 -11 4 -6 8 5 60
-21 132 -64 72 -43 116 -76 109 -80 -8 -5 -7 -9 5 -13 9 -4 13 -3 10 3 -9 15
1 12 32 -8 73 -45 132 -95 126 -104 -3 -7 -1 -8 5 -4 7 4 38 -13 72 -39 63
-49 85 -73 56 -62 -11 4 -15 3 -11 -4 4 -6 14 -8 22 -5 21 8 43 -12 36 -32 -4
-14 -3 -15 5 -2 12 16 26 7 99 -66 32 -33 39 -45 30 -55 -10 -11 -9 -11 5 0
20 15 42 5 34 -16 -3 -8 -1 -11 5 -8 13 9 41 -14 32 -28 -3 -5 -1 -7 4 -4 6 4
18 -2 28 -13 15 -17 16 -22 4 -37 -13 -17 -13 -17 5 -3 17 13 20 12 40 -11 11
-14 45 -55 74 -90 29 -35 61 -73 71 -84 10 -11 52 -69 95 -130 72 -103 69
-104 -14 -4 -47 57 -194 212 -252 267 -26 25 -45 49 -41 55 3 5 2 7 -3 4 -5
-3 -27 10 -49 28 -35 31 -37 36 -24 52 13 17 13 17 -4 4 -16 -12 -21 -12 -42
5 -101 80 -218 165 -258 188 -26 16 -44 33 -40 38 3 7 1 8 -6 4 -6 -4 -17 -3
-24 3 -7 5 -40 24 -72 41 -33 17 -73 39 -90 48 -74 44 -294 126 -502 187 -6 2
-11 10 -9 17 2 18 58 148 63 148 3 0 39 -14 81 -32z m2983 -915 c18 -127 18
-473 1 -573 l-14 -75 -82 -80 c-202 -196 -511 -446 -757 -611 -138 -94 -320
-204 -336 -204 -5 0 -9 67 -8 150 l0 149 89 61 c243 166 389 306 647 620 156
191 313 426 394 588 22 44 42 79 46 76 3 -2 13 -48 20 -101z m-3151 -63 c106
-17 253 -62 238 -72 -9 -6 -6 -7 8 -3 23 6 140 -42 253 -103 114 -62 242 -148
234 -157 -5 -4 -3 -6 2 -2 6 3 17 2 25 -3 12 -7 12 -11 -1 -26 -13 -16 -12
-16 7 -4 19 12 25 10 58 -16 20 -16 36 -38 36 -49 0 -11 3 -31 7 -44 5 -18 3
-22 -7 -16 -7 4 -16 2 -22 -6 -8 -11 -9 -10 -4 4 3 9 1 17 -4 17 -16 0 -23 42
-9 51 11 6 11 11 2 20 -18 18 -29 -17 -16 -52 8 -20 8 -29 0 -32 -8 -2 -6 -9
4 -20 9 -9 19 -13 23 -10 3 4 6 1 6 -5 0 -20 -24 -13 -39 11 -8 12 -12 23 -10
23 2 1 -4 11 -14 22 -10 10 -20 29 -22 42 -6 29 -15 39 -15 16 0 -14 -3 -15
-22 -5 -13 7 -25 15 -28 19 -3 4 -29 19 -57 35 -29 15 -53 32 -53 37 0 4 -3 7
-7 6 -5 -1 -51 18 -103 43 -251 121 -367 159 -538 179 -113 14 -248 8 -398
-15 -91 -15 -193 -38 -217 -50 -6 -4 -1 2 13 13 44 37 179 104 192 96 7 -4 9
-3 5 1 -9 10 47 29 143 49 79 17 242 20 330 6z m-853 -1135 c58 -73 73 -95 70
-107 -2 -7 -2 -9 1 -5 8 15 61 -44 55 -61 -4 -9 -2 -13 4 -9 5 4 39 -26 74
-65 136 -152 241 -237 417 -337 l84 -48 -69 -6 c-65 -5 -71 -4 -126 30 -31 19
-55 38 -52 43 3 5 0 12 -6 16 -8 4 -9 3 -5 -4 24 -39 -53 17 -171 126 -72 65
-89 87 -56 75 15 -6 16 -5 3 9 -8 9 -18 12 -21 7 -13 -21 -116 122 -186 260
-51 100 -68 148 -38 106 8 -11 18 -24 22 -30z m1958 -162 c157 -113 290 -194
437 -266 70 -34 127 -64 127 -67 2 -16 -346 -140 -504 -179 -193 -48 -192 -48
-291 -6 -85 36 -357 180 -399 212 -19 14 -19 16 25 51 140 113 266 266 326
397 l25 55 72 -58 c40 -33 122 -95 182 -139z m-1711 -685 c39 -12 72 -23 74
-24 1 -1 -33 -85 -77 -187 -99 -230 -99 -229 -69 -257 21 -20 30 -22 118 -17
52 3 106 8 120 12 21 5 22 4 5 -4 -11 -5 -57 -25 -103 -45 -229 -96 -324 -197
-382 -409 -24 -86 -57 -298 -67 -422 -6 -79 -8 -86 -17 -60 -5 17 -10 136 -10
276 -1 263 -2 271 -52 283 -40 10 -79 -20 -260 -207 -106 -108 -159 -157 -144
-132 13 22 27 42 30 45 3 3 18 21 33 40 16 19 68 76 116 125 106 109 121 130
121 171 0 41 -33 59 -97 51 -26 -3 -142 -35 -257 -71 -115 -36 -211 -64 -213
-62 -2 1 39 24 91 49 92 46 228 94 496 177 213 66 272 104 334 211 52 91 116
334 116 440 0 23 5 39 12 39 6 0 43 -10 82 -22z m1580 -105 c-20 -38 -47 -86
-59 -108 -60 -107 -196 -376 -212 -420 -23 -59 -20 -78 12 -95 32 -17 88 -3
233 61 109 47 142 57 142 42 0 -3 -72 -80 -160 -169 -103 -104 -168 -179 -180
-206 -43 -94 -17 -230 104 -553 24 -63 25 -68 6 -45 -80 96 -133 193 -179 325
-39 108 -53 133 -86 141 -34 8 -70 -17 -95 -65 -10 -22 -46 -128 -79 -237 -33
-110 -60 -189 -61 -178 0 38 30 196 59 309 51 192 51 219 0 249 -22 13 -38 15
-62 10 -18 -4 -36 -7 -40 -6 -5 2 -6 -2 -2 -8 3 -5 2 -10 -4 -10 -12 0 -80
-57 -176 -149 -200 -189 -201 -190 -175 -146 67 112 123 174 413 455 75 72
110 115 147 181 53 94 156 348 216 531 l38 117 46 6 c25 4 74 12 110 20 36 7
69 13 73 14 4 1 -9 -29 -29 -66z"/>
<path d="M2205 6511 c-88 -42 -138 -104 -169 -211 -35 -120 -29 -369 10 -397
39 -28 148 -54 228 -54 71 -1 87 3 145 33 50 25 74 45 98 82 62 91 79 211 48
329 -55 210 -197 296 -360 218z m188 -105 c32 -13 107 -90 107 -109 0 -5 -14
3 -30 17 -122 102 -291 13 -307 -163 -10 -104 30 -191 111 -243 l31 -20 -60 6
c-33 3 -81 12 -106 21 -47 16 -47 17 -54 71 -8 68 1 150 26 238 17 57 29 78
72 120 71 71 141 91 210 62z m-37 -170 c19 -19 34 -38 34 -44 0 -5 -18 -9 -41
-8 -34 1 -46 -5 -70 -32 l-28 -32 -34 23 c-24 16 -31 28 -27 42 8 30 22 49 50
68 39 27 77 22 116 -17z"/>
</g>
</svg>
